<svg width="24" height="23" viewBox="0 0 24 23" fill="none" xmlns="http://www.w3.org/2000/svg">
<path d="M5.18414 11.6569C5.49354 11.4783 5.87474 11.4783 6.18414 11.6569L10.1068 13.9217C10.4162 14.1003 10.6068 14.4304 10.6068 14.7877V19.3171C10.6068 19.6744 10.4162 20.0045 10.1068 20.1831L6.18414 22.4479C5.87474 22.6265 5.49354 22.6265 5.18414 22.4479L1.26153 20.1831C0.952129 20.0045 0.76153 19.6744 0.76153 19.3171V14.7877C0.76153 14.4304 0.952129 14.1003 1.26153 13.9217L5.18414 11.6569Z" fill="white"/>
<path d="M17.8149 11.6569C18.1243 11.4783 18.5055 11.4783 18.8149 11.6569L22.7375 13.9217C23.0469 14.1003 23.2375 14.4304 23.2375 14.7877V19.3171C23.2375 19.6744 23.0469 20.0045 22.7375 20.1831L18.8149 22.4479C18.5055 22.6265 18.1243 22.6265 17.8149 22.4479L13.8923 20.1831C13.5829 20.0045 13.3923 19.6744 13.3923 19.3171V14.7877C13.3923 14.4304 13.5829 14.1003 13.8923 13.9217L17.8149 11.6569Z" fill="white"/>
<path d="M11.9986 1.15461L15.9212 3.41933L15.9212 7.94877L11.9986 10.2135L8.07595 7.94877L8.07595 3.41933L11.9986 1.15461Z" stroke="white" stroke-width="2"/>
</svg>
