<svg width="32" height="32" viewBox="0 0 32 32" fill="none" xmlns="http://www.w3.org/2000/svg">
<path d="M13 26C13 26 13.5 29 16 29C18.5 29 19 26 19 26C19 26 18 28 16 28C14 28 13 26 13 26Z" fill="white"/>
<path d="M11.5 12L13 14V16L16 21L19 16V14L20.5 12L19.0212 10.9437C17.9126 10.1519 17.6729 8.6028 18.4903 7.51292C18.4961 7.50523 18.4962 7.49468 18.4906 7.48686L16 4L13.5094 7.48686C13.5038 7.49468 13.5039 7.50523 13.5097 7.51292C14.3271 8.6028 14.0874 10.1519 12.9788 10.9437L11.5 12Z" stroke="white" stroke-width="2"/>
<path d="M16 21L25 18V22L24 25V28L24.7204 27.2796C26.8004 25.1996 27.8591 22.3094 27.6148 19.378L27.0304 12.365C27.0108 12.1293 26.9082 11.9082 26.741 11.741L25 10L23.0537 9.02683C23.0365 9.01824 23.0182 9.03647 23.0268 9.05367L24.8 12.6C24.9259 12.8518 24.9259 13.1482 24.8 13.4V13.4C24.3582 14.2837 23.2837 14.6418 22.4 14.2L20 13" stroke="white" stroke-width="2"/>
<path d="M16 21L7 18V22L8 25V28L7.27955 27.2796C5.19959 25.1996 4.14089 22.3094 4.38516 19.378L4.96958 12.365C4.98922 12.1293 5.09177 11.9082 5.25902 11.741L7 10L8.94633 9.02683C8.96353 9.01824 8.98176 9.03647 8.97317 9.05367L7.2 12.6C7.0741 12.8518 7.0741 13.1482 7.2 13.4V13.4C7.64183 14.2837 8.71634 14.6418 9.6 14.2L12 13" stroke="white" stroke-width="2"/>
<path d="M15.5469 25.5469L15.7525 25.7525C15.8892 25.8892 16.1108 25.8892 16.2475 25.7525L16.4531 25.5469C16.7551 25.2449 17.2449 25.2449 17.5469 25.5469C17.837 25.837 18.2305 26 18.6408 26H19L18.4472 24.8944C18.1569 24.3138 17.6862 23.8431 17.1056 23.5528L16.8944 23.4472C16.3314 23.1657 15.6686 23.1657 15.1056 23.4472L14.8944 23.5528C14.3138 23.8431 13.8431 24.3138 13.5528 24.8944L13 26H13.3592C13.7695 26 14.163 25.837 14.4531 25.5469C14.7551 25.2449 15.2449 25.2449 15.5469 25.5469Z" fill="white"/>
<path d="M10 24.5C10.8 24.5 11.6667 24.8333 12 25C11.6 25.4 9.16667 25.8333 8 26L9 25C9 24.8333 9.2 24.5 10 24.5Z" fill="white"/>
<path d="M22 24.5C21.2 24.5 20.3333 24.8333 20 25C20.4 25.4 22.8333 25.8333 24 26L23 25C23 24.8333 22.8 24.5 22 24.5Z" fill="white"/>
</svg>
