<svg width="18" height="27" viewBox="0 0 18 27" fill="none" xmlns="http://www.w3.org/2000/svg">
<path d="M4.86485 10.7528C5.18444 10.5581 5.58603 10.5581 5.90562 10.7528L9.56937 12.9855C9.86723 13.167 10.049 13.4906 10.049 13.8395V18.4003C10.049 18.7491 9.86723 19.0727 9.56937 19.2542L5.90562 21.4869C5.58603 21.6816 5.18444 21.6816 4.86485 21.4869L1.2011 19.2542C0.903239 19.0727 0.721485 18.7491 0.721485 18.4003V13.8395C0.721485 13.4906 0.90324 13.167 1.2011 12.9855L4.86485 10.7528Z" fill="white"/>
<path d="M12.0944 10.7528C12.414 10.5581 12.8156 10.5581 13.1352 10.7528L16.7989 12.9855C17.0968 13.167 17.2785 13.4906 17.2785 13.8395V18.4003C17.2785 18.7491 17.0968 19.0727 16.7989 19.2542L13.1352 21.4869C12.8156 21.6816 12.414 21.6816 12.0944 21.4869L8.43065 19.2542C8.13279 19.0727 7.95104 18.7491 7.95104 18.4003V13.8395C7.95104 13.4906 8.13279 13.167 8.43065 12.9855L12.0944 10.7528Z" fill="white"/>
<path d="M8.95238 15.3845C9.27197 15.1897 9.67355 15.1897 9.99314 15.3845L13.6569 17.6172C13.9548 17.7987 14.1365 18.1223 14.1365 18.4711V23.0319C14.1365 23.3807 13.9548 23.7044 13.6569 23.8859L9.99314 26.1185C9.67355 26.3133 9.27197 26.3133 8.95238 26.1185L5.28863 23.8859C4.99076 23.7044 4.80901 23.3807 4.80901 23.0319V18.4711C4.80901 18.1223 4.99076 17.7987 5.28863 17.6172L8.95238 15.3845Z" fill="white"/>
<path d="M9.52946 9.99803C9.28095 10.1455 9.15334 10.22 9.05763 10.2652C9.05593 10.266 9.05427 10.2668 9.05265 10.2676C9.05102 10.2668 9.04934 10.2661 9.04762 10.2653C8.95086 10.2225 8.8215 10.151 8.56953 10.0095L5.58666 8.33464C5.33469 8.19316 5.20634 8.11991 5.11935 8.05962C5.1178 8.05855 5.11629 8.0575 5.11484 8.05648C5.11464 8.05471 5.11444 8.05288 5.11424 8.05101C5.103 7.94577 5.1002 7.79801 5.09674 7.50906L5.05579 4.08838C5.05233 3.79943 5.0516 3.65165 5.06031 3.54617C5.06047 3.54429 5.06062 3.54246 5.06078 3.54069C5.06221 3.53963 5.06369 3.53855 5.06521 3.53744C5.15074 3.47508 5.2773 3.39878 5.52581 3.25131L8.46773 1.5055C8.71624 1.35803 8.84385 1.28351 8.93956 1.23831C8.94127 1.23751 8.94292 1.23673 8.94454 1.23598C8.94617 1.23669 8.94785 1.23743 8.94957 1.23819C9.04633 1.28108 9.17569 1.35253 9.42766 1.49401L12.4105 3.16889C12.6625 3.31038 12.7909 3.38363 12.8778 3.44391C12.8794 3.44499 12.8809 3.44604 12.8824 3.44706C12.8826 3.44883 12.8828 3.45065 12.883 3.45252C12.8942 3.55777 12.897 3.70552 12.9005 3.99447L12.9414 7.41516C12.9449 7.70411 12.9456 7.85189 12.9369 7.95737C12.9367 7.95925 12.9366 7.96107 12.9364 7.96285C12.935 7.9639 12.9335 7.96499 12.932 7.9661C12.8465 8.02845 12.7199 8.10475 12.4714 8.25223L9.52946 9.99803Z" stroke="white" stroke-width="2"/>
</svg>
