<svg width="16" height="24" viewBox="0 0 16 24" fill="none" xmlns="http://www.w3.org/2000/svg">
<path d="M6.99457 14.6047L7.04665 14.1099L6.68336 13.7699L2.67894 10.0223C1.82308 9.22132 1.51212 7.99524 1.8828 6.8832L3.1601 3.05131C3.56844 1.82629 4.71485 1 6.00615 1H9.99386C11.2851 1 12.4316 1.82629 12.8399 3.05132L14.1172 6.88323C14.4879 7.99526 14.1769 9.22133 13.3211 10.0223L9.31675 13.7699L8.95347 14.1099L9.00556 14.6047L9.77299 21.8953C9.83514 22.4858 9.37219 23 8.77848 23H7.22164C6.62794 23 6.16498 22.4858 6.22713 21.8953L6.99457 14.6047Z" stroke="white" stroke-width="2"/>
</svg>
